<svg xmlns="http://www.w3.org/2000/svg" width="35" height="32" viewBox="0 0 35 32" fill="none">
    <g clip-path="url(#clip0_13_2353)">
        <path d="M34.055 16C34.055 7.1635 26.6506 0 17.5168 0C8.38305 0 0.978577 7.16337 0.978577 16C0.978577 23.986 7.0264 30.6054 14.9327 31.8056V20.625H10.7335V16H14.9327V12.475C14.9327 8.465 17.4018 6.25 21.1794 6.25C22.9889 6.25 24.8815 6.5625 24.8815 6.5625V10.5H22.7961C20.7415 10.5 20.1009 11.7334 20.1009 12.9987V16H24.6877L23.9544 20.625H20.1009V31.8056C28.0072 30.6054 34.055 23.9861 34.055 16Z" fill="#1877F2"/>
        <path d="M23.9544 20.625L24.6876 16H20.1009V12.9987C20.1009 11.7332 20.7416 10.5 22.7961 10.5H24.8815V6.5625C24.8815 6.5625 22.9889 6.25 21.1793 6.25C17.4018 6.25 14.9327 8.465 14.9327 12.475V16H10.7335V20.625H14.9327V31.8056C15.7875 31.9352 16.6515 32.0002 17.5168 32C18.3821 32.0002 19.246 31.9353 20.1009 31.8056V20.625H23.9544Z" fill="white"/>
    </g>
    <defs>
        <clipPath id="clip0_13_2353">
            <rect width="33.0765" height="32" fill="white" transform="translate(0.978577)"/>
        </clipPath>
    </defs>
</svg>