<svg xmlns="http://www.w3.org/2000/svg" width="35" height="32" viewBox="0 0 35 32" fill="none">
    <path d="M30.9939 13.3886H29.8838V13.3333H17.4801V18.6666H25.2689C24.1326 21.7713 21.0792 24 17.4801 24C12.9135 24 9.21098 20.418 9.21098 16C9.21098 11.582 12.9135 7.99996 17.4801 7.99996C19.588 7.99996 21.5058 8.76929 22.966 10.026L26.8642 6.25463C24.4027 4.03529 21.1102 2.66663 17.4801 2.66663C9.86907 2.66663 3.69824 8.63663 3.69824 16C3.69824 23.3633 9.86907 29.3333 17.4801 29.3333C25.0911 29.3333 31.262 23.3633 31.262 16C31.262 15.106 31.1669 14.2333 30.9939 13.3886Z" fill="#FFC107"/>
    <path d="M5.28729 9.79396L9.81532 13.0066C11.0405 10.072 14.0078 7.99996 17.4801 7.99996C19.588 7.99996 21.5058 8.76929 22.966 10.026L26.8642 6.25463C24.4027 4.03529 21.1102 2.66663 17.4801 2.66663C12.1865 2.66663 7.59575 5.55796 5.28729 9.79396Z" fill="#FF3D00"/>
    <path d="M17.4801 29.3333C21.04 29.3333 24.2746 28.0153 26.7202 25.872L22.4547 22.38C21.0245 23.4322 19.2769 24.0013 17.4801 24C13.8954 24 10.8517 21.7886 9.70508 18.7026L5.21082 22.0526C7.49171 26.3706 12.1238 29.3333 17.4801 29.3333Z" fill="#4CAF50"/>
    <path d="M30.9939 13.3887H29.8838V13.3334H17.4801V18.6667H25.2689C24.7254 20.1443 23.7463 21.4355 22.4526 22.3807L22.4547 22.3794L26.7201 25.8714C26.4183 26.1367 31.262 22.6667 31.262 16C31.262 15.106 31.1669 14.2334 30.9939 13.3887Z" fill="#1976D2"/>
</svg>