<svg width="89" height="18" viewBox="0 0 89 18" fill="none" xmlns="http://www.w3.org/2000/svg">
    <g filter="url(#filter0_d_25_1895)">
        <path d="M4.22 1.14C4.96667 1.14 5.72 1.14667 6.48 1.16C7.24 1.16 7.98667 1.17333 8.72 1.2C9.45333 1.22667 10.14 1.27333 10.78 1.34L10.64 3.56H5.34C5.00667 3.56 4.75333 3.64667 4.58 3.82C4.42 3.99333 4.34 4.24667 4.34 4.58V11.62C4.34 11.9533 4.42 12.2067 4.58 12.38C4.75333 12.5533 5.00667 12.64 5.34 12.64H10.64L10.78 14.86C10.14 14.9133 9.45333 14.96 8.72 15C7.98667 15.0267 7.24 15.04 6.48 15.04C5.72 15.0533 4.96667 15.06 4.22 15.06C3.34 15.06 2.62667 14.8067 2.08 14.3C1.54667 13.78 1.28 13.1067 1.28 12.28V3.92C1.28 3.08 1.54667 2.40667 2.08 1.9C2.62667 1.39333 3.34 1.14 4.22 1.14ZM1.64 6.74H9.9V8.9H1.64V6.74ZM17.3039 4.86C17.6639 4.86 18.0572 4.88 18.4839 4.92C18.9106 4.94667 19.3372 5.00667 19.7639 5.1C20.2039 5.18 20.6039 5.3 20.9639 5.46L20.6439 7.32C20.1106 7.30667 19.5972 7.29333 19.1039 7.28C18.6239 7.26667 18.1906 7.26 17.8039 7.26C17.2039 7.26 16.7306 7.34 16.3839 7.5C16.0372 7.66 15.7839 7.94667 15.6239 8.36C15.4772 8.76 15.4039 9.32 15.4039 10.04C15.4039 10.7733 15.4772 11.3467 15.6239 11.76C15.7839 12.1733 16.0372 12.46 16.3839 12.62C16.7306 12.78 17.2039 12.86 17.8039 12.86C18.0172 12.86 18.2906 12.8533 18.6239 12.84C18.9572 12.8267 19.3172 12.8133 19.7039 12.8C20.0906 12.7733 20.4706 12.7333 20.8439 12.68L21.1239 14.56C20.5906 14.8 19.9839 14.9733 19.3039 15.08C18.6239 15.1867 17.9506 15.24 17.2839 15.24C16.0572 15.24 15.0772 15.0733 14.3439 14.74C13.6239 14.3933 13.1039 13.84 12.7839 13.08C12.4639 12.32 12.3039 11.3067 12.3039 10.04C12.3039 8.77333 12.4639 7.76 12.7839 7C13.1172 6.24 13.6506 5.69333 14.3839 5.36C15.1172 5.02667 16.0906 4.86 17.3039 4.86ZM27.4625 4.86C28.7025 4.86 29.6958 5.03333 30.4425 5.38C31.1892 5.71333 31.7225 6.26 32.0425 7.02C32.3758 7.78 32.5425 8.8 32.5425 10.08C32.5425 11.3333 32.3758 12.34 32.0425 13.1C31.7225 13.86 31.1892 14.4067 30.4425 14.74C29.6958 15.0733 28.7025 15.24 27.4625 15.24C26.2358 15.24 25.2425 15.0733 24.4825 14.74C23.7358 14.4067 23.1958 13.86 22.8625 13.1C22.5292 12.34 22.3625 11.3333 22.3625 10.08C22.3625 8.8 22.5292 7.78 22.8625 7.02C23.1958 6.26 23.7358 5.71333 24.4825 5.38C25.2425 5.03333 26.2358 4.86 27.4625 4.86ZM27.4625 7.02C26.9558 7.02 26.5558 7.10667 26.2625 7.28C25.9692 7.45333 25.7625 7.76 25.6425 8.2C25.5225 8.64 25.4625 9.26667 25.4625 10.08C25.4625 10.88 25.5225 11.5 25.6425 11.94C25.7625 12.38 25.9692 12.6867 26.2625 12.86C26.5558 13.02 26.9558 13.1 27.4625 13.1C27.9692 13.1 28.3692 13.02 28.6625 12.86C28.9558 12.6867 29.1625 12.38 29.2825 11.94C29.4025 11.5 29.4625 10.88 29.4625 10.08C29.4625 9.26667 29.4025 8.64 29.2825 8.2C29.1625 7.76 28.9558 7.45333 28.6625 7.28C28.3692 7.10667 27.9692 7.02 27.4625 7.02ZM39.2017 0.94C39.8817 0.94 40.6217 0.98 41.4217 1.06C42.2217 1.12667 43.0017 1.27333 43.7617 1.5L43.5617 3.52C42.9751 3.50667 42.2884 3.49333 41.5017 3.48C40.7151 3.46667 39.9417 3.46 39.1817 3.46C38.8084 3.46 38.4884 3.47333 38.2217 3.5C37.9684 3.51333 37.7617 3.56667 37.6017 3.66C37.4417 3.74 37.3284 3.86667 37.2617 4.04C37.1951 4.21333 37.1617 4.45333 37.1617 4.76C37.1617 5.22667 37.2684 5.56667 37.4817 5.78C37.7084 5.99333 38.0884 6.18667 38.6217 6.36L41.2817 7.22C42.3884 7.59333 43.1551 8.1 43.5817 8.74C44.0084 9.38 44.2217 10.22 44.2217 11.26C44.2217 12.0467 44.1284 12.7 43.9417 13.22C43.7551 13.74 43.4617 14.1467 43.0617 14.44C42.6617 14.7333 42.1351 14.94 41.4817 15.06C40.8284 15.1933 40.0284 15.26 39.0817 15.26C38.6284 15.26 37.9817 15.2267 37.1417 15.16C36.3017 15.1067 35.3417 14.96 34.2617 14.72L34.4617 12.56C35.2484 12.5733 35.9284 12.5933 36.5017 12.62C37.0884 12.6333 37.5884 12.6467 38.0017 12.66C38.4151 12.66 38.7751 12.66 39.0817 12.66C39.6151 12.66 40.0284 12.6267 40.3217 12.56C40.6284 12.4933 40.8417 12.36 40.9617 12.16C41.0817 11.96 41.1417 11.6733 41.1417 11.3C41.1417 10.98 41.0951 10.7267 41.0017 10.54C40.9217 10.34 40.7817 10.1867 40.5817 10.08C40.3951 9.96 40.1351 9.85333 39.8017 9.76L37.0017 8.8C35.9484 8.41333 35.2017 7.90667 34.7617 7.28C34.3217 6.65333 34.1017 5.82667 34.1017 4.8C34.1017 4 34.1951 3.35333 34.3817 2.86C34.5817 2.35333 34.8817 1.96 35.2817 1.68C35.6951 1.4 36.2217 1.20667 36.8617 1.1C37.5151 0.993333 38.2951 0.94 39.2017 0.94ZM51.4005 4.86C52.2271 4.86 52.9271 4.97333 53.5005 5.2C54.0738 5.41333 54.5071 5.78667 54.8005 6.32C55.1071 6.84 55.2605 7.56 55.2605 8.48V15H52.9005L52.4805 12.86L52.2805 12.56V8.46C52.2805 7.99333 52.1671 7.65333 51.9405 7.44C51.7271 7.22667 51.3138 7.12 50.7005 7.12C50.1938 7.12 49.5605 7.14 48.8005 7.18C48.0405 7.20667 47.2605 7.24667 46.4605 7.3L46.1805 5.34C46.6605 5.24667 47.2138 5.16667 47.8405 5.1C48.4671 5.03333 49.0938 4.98 49.7205 4.94C50.3471 4.88667 50.9071 4.86 51.4005 4.86ZM54.0405 8.92L54.0205 10.58L49.6205 10.6C49.2605 10.6 49.0005 10.6867 48.8405 10.86C48.6938 11.0333 48.6205 11.2667 48.6205 11.56V12.04C48.6205 12.3733 48.7138 12.6333 48.9005 12.82C49.0871 12.9933 49.3871 13.08 49.8005 13.08C50.1471 13.08 50.5205 13.0067 50.9205 12.86C51.3338 12.7133 51.7405 12.5067 52.1405 12.24C52.5405 11.9733 52.8938 11.66 53.2005 11.3V12.58C53.0805 12.78 52.9005 13.0333 52.6605 13.34C52.4338 13.6333 52.1405 13.9267 51.7805 14.22C51.4205 14.5 51.0005 14.74 50.5205 14.94C50.0405 15.14 49.4938 15.24 48.8805 15.24C48.2805 15.24 47.7405 15.1333 47.2605 14.92C46.7805 14.7067 46.4005 14.3933 46.1205 13.98C45.8405 13.5667 45.7005 13.0533 45.7005 12.44V11.42C45.7005 10.6333 45.9671 10.02 46.5005 9.58C47.0338 9.14 47.7671 8.92 48.7005 8.92H54.0405ZM67.4686 5.12L64.2086 14.3C64.1286 14.5133 64.0019 14.6867 63.8286 14.82C63.6686 14.94 63.4753 15 63.2486 15H60.6686C60.4419 15 60.2419 14.94 60.0686 14.82C59.9086 14.6867 59.7886 14.5133 59.7086 14.3L56.4486 5.12H59.5886L61.4086 11.3C61.4886 11.5933 61.5619 11.8933 61.6286 12.2C61.6953 12.5067 61.7619 12.8 61.8286 13.08H62.0886C62.1686 12.7867 62.2419 12.4933 62.3086 12.2C62.3886 11.8933 62.4686 11.5933 62.5486 11.3L64.3286 5.12H67.4686ZM73.3409 4.86C75.0076 4.86 76.2009 5.14667 76.9209 5.72C77.6543 6.28 78.0209 7.12 78.0209 8.24C78.0343 9.14667 77.8076 9.82667 77.3409 10.28C76.8743 10.72 76.0676 10.94 74.9209 10.94H69.4009V9.28H74.1009C74.5543 9.28 74.8409 9.18667 74.9609 9C75.0943 8.8 75.1609 8.52667 75.1609 8.18C75.1476 7.71333 75.0076 7.39333 74.7409 7.22C74.4876 7.03333 74.0543 6.94 73.4409 6.94C72.8943 6.94 72.4676 7.01333 72.1609 7.16C71.8543 7.30667 71.6409 7.58667 71.5209 8C71.4009 8.41333 71.3409 9.01333 71.3409 9.8C71.3409 10.6267 71.4143 11.2667 71.5609 11.72C71.7076 12.16 71.9543 12.4667 72.3009 12.64C72.6609 12.8133 73.1543 12.9 73.7809 12.9C74.2343 12.9 74.7943 12.8867 75.4609 12.86C76.1409 12.82 76.8209 12.76 77.5009 12.68L77.7809 14.5C77.3943 14.6867 76.9543 14.8333 76.4609 14.94C75.9676 15.0467 75.4609 15.12 74.9409 15.16C74.4209 15.2133 73.9209 15.24 73.4409 15.24C72.1876 15.24 71.1743 15.06 70.4009 14.7C69.6409 14.3267 69.0876 13.76 68.7409 13C68.4076 12.24 68.2409 11.2667 68.2409 10.08C68.2409 8.78667 68.4143 7.76 68.7609 7C69.1076 6.24 69.6543 5.69333 70.4009 5.36C71.1476 5.02667 72.1276 4.86 73.3409 4.86ZM82.27 5.12L82.63 7.08L82.91 7.34V15H79.95V5.12H82.27ZM87.09 4.86L86.81 7.6H85.99C85.5233 7.6 85.0367 7.66667 84.53 7.8C84.0233 7.93333 83.3833 8.13333 82.61 8.4L82.41 6.74C83.1033 6.12667 83.8033 5.66 84.51 5.34C85.2167 5.02 85.9033 4.86 86.57 4.86H87.09Z" fill="#87CD76"/>
    </g>
    <defs>
        <filter id="filter0_d_25_1895" x="0.280029" y="0.939941" width="87.81" height="16.3201" filterUnits="userSpaceOnUse" color-interpolation-filters="sRGB">
            <feFlood flood-opacity="0" result="BackgroundImageFix"/>
            <feColorMatrix in="SourceAlpha" type="matrix" values="0 0 0 0 0 0 0 0 0 0 0 0 0 0 0 0 0 0 127 0" result="hardAlpha"/>
            <feOffset dy="1"/>
            <feGaussianBlur stdDeviation="0.5"/>
            <feComposite in2="hardAlpha" operator="out"/>
            <feColorMatrix type="matrix" values="0 0 0 0 0 0 0 0 0 0 0 0 0 0 0 0 0 0 0.25 0"/>
            <feBlend mode="normal" in2="BackgroundImageFix" result="effect1_dropShadow_25_1895"/>
            <feBlend mode="normal" in="SourceGraphic" in2="effect1_dropShadow_25_1895" result="shape"/>
        </filter>
    </defs>
</svg>
