<svg xmlns="http://www.w3.org/2000/svg" width="30" height="32" viewBox="0 0 30 32" fill="none">
    <g clip-path="url(#clip0_13_2358)">
        <path d="M21.6541 11.5224C23.7845 12.9949 26.3943 13.8614 29.213 13.8614V8.61666C28.6795 8.61677 28.1475 8.56292 27.6256 8.456V12.5843C24.8071 12.5843 22.1976 11.718 20.0668 10.2456V20.9486C20.0668 26.3028 15.578 30.6429 10.0412 30.6429C7.9753 30.6429 6.05504 30.039 4.45996 29.0032C6.28053 30.8033 8.81944 31.9198 11.6282 31.9198C17.1654 31.9198 21.6544 27.5798 21.6544 22.2253V11.5224H21.6541ZM23.6125 6.23112C22.5237 5.08099 21.8088 3.59465 21.6541 1.95139V1.27686H20.1498C20.5285 3.36535 21.8202 5.14963 23.6125 6.23112ZM7.96196 24.8946C7.35368 24.1235 7.02487 23.18 7.02635 22.2099C7.02635 19.7612 9.07949 17.7756 11.6126 17.7756C12.0846 17.7754 12.5538 17.8455 13.0037 17.9834V12.6214C12.4779 12.5518 11.9473 12.5221 11.417 12.533V16.7065C10.9668 16.5684 10.4974 16.4984 10.0251 16.4988C7.49216 16.4988 5.43914 18.4841 5.43914 20.9332C5.43914 22.665 6.46531 24.1642 7.96196 24.8946Z" fill="#FF004F"/>
        <path d="M20.0668 10.2455C22.1977 11.7179 24.807 12.5842 27.6256 12.5842V8.45589C26.0523 8.13181 24.6595 7.33688 23.6124 6.23112C21.82 5.14952 20.5285 3.36524 20.1498 1.27686H16.1986V22.225C16.1895 24.6672 14.1399 26.6446 11.6123 26.6446C10.123 26.6446 8.79969 25.9581 7.96172 24.8945C6.46529 24.1642 5.43901 22.6649 5.43901 20.9334C5.43901 18.4845 7.49203 16.4989 10.025 16.4989C10.5103 16.4989 10.9781 16.572 11.4168 16.7066V12.5331C5.97725 12.6418 1.6026 16.9395 1.6026 22.2252C1.6026 24.8637 2.69196 27.2557 4.46006 29.0034C6.05515 30.039 7.97529 30.6431 10.0413 30.6431C15.5782 30.6431 20.0669 26.3027 20.0669 20.9486V10.2456L20.0668 10.2455Z" fill="black"/>
        <path d="M27.6255 8.45572V7.3397C26.2068 7.34178 24.8161 6.95759 23.6123 6.23106C24.6779 7.35902 26.0809 8.13686 27.6255 8.45595V8.45572ZM20.1497 1.27669C20.1136 1.07714 20.0859 0.87626 20.0667 0.674538V0H14.6109V20.9484C14.6022 23.3903 12.5526 25.3677 10.0249 25.3677C9.30829 25.3688 8.60149 25.2067 7.96159 24.8947C8.79957 25.9581 10.1229 26.6444 11.6122 26.6444C14.1397 26.6444 16.1895 24.6673 16.1984 22.2251V1.2768H20.1497V1.27669ZM11.4171 12.533V11.3447C10.9612 11.2844 10.5015 11.2542 10.0414 11.2544C4.50396 11.2544 0.0152588 15.5947 0.0152588 20.9484C0.0152588 24.305 1.77937 27.2631 4.46016 29.0031C2.69206 27.2555 1.6027 24.8634 1.6027 22.225C1.6027 16.9395 5.97723 12.6417 11.4171 12.533Z" fill="#00F2EA"/>
    </g>
    <defs>
        <clipPath id="clip0_13_2358">
            <rect width="29.1985" height="32" fill="white" transform="translate(0.0152588)"/>
        </clipPath>
    </defs>
</svg>